<?xml version="1.0" encoding="UTF-8"?>
<svg version="1.1" xmlns="http://www.w3.org/2000/svg" width="1038" height="260">
<path d="M0 0 C342.54 0 685.08 0 1038 0 C1038 85.8 1038 171.6 1038 260 C695.46 260 352.92 260 0 260 C0 174.2 0 88.4 0 0 Z " fill="#FEFEFE" transform="translate(0,0)"/>
<path d="M0 0 C-0.00745743 0.63369507 -0.01491486 1.26739014 -0.02259827 1.92028809 C-0.09162355 8.53989764 -0.09741253 15.15745941 -0.06713867 21.77734375 C-0.06406403 24.24482411 -0.07689861 26.71237923 -0.10620117 29.1796875 C-0.14563352 32.73576862 -0.12709612 36.28765201 -0.09765625 39.84375 C-0.12223404 40.93989624 -0.14681183 42.03604248 -0.1721344 43.16540527 C-0.08677126 47.75763534 0.04865852 50.79960218 2.96089172 54.47424316 C11.45494283 62.19223164 21.03828041 64.6627203 32.40234375 64.2734375 C35.47501567 63.94999835 38.13639102 63.14544359 41 62 C42.32 62 43.64 62 45 62 C45 61.34 45 60.68 45 60 C48.46455373 58.15872808 51.93345076 56.3259429 55.40649414 54.50073242 C57.16460351 53.57456185 58.919243 52.64181423 60.67382812 51.70898438 C61.78564453 51.12568359 62.89746094 50.54238281 64.04296875 49.94140625 C65.06414795 49.40201416 66.08532715 48.86262207 67.13745117 48.30688477 C69.80661019 47.08829131 72.11036525 46.42938348 75 46 C75 45.34 75 44.68 75 44 C78.96075983 41.91003612 82.92612151 39.82914869 86.89575195 37.75610352 C88.24206426 37.05147492 89.58714889 36.34449493 90.9309082 35.63500977 C98.13010805 31.83595265 105.1365194 28.25287424 113 26 C113 25.34 113 24.68 113 24 C118.49242643 22.8436997 121.53252066 22.67264603 126.359375 25.6015625 C129.23806331 28.05530159 131.69111468 30.17745313 132.35113525 34.07183838 C132.46252816 36.61551891 132.44948034 39.13031634 132.390625 41.67578125 C132.38496521 42.6009404 132.37930542 43.52609955 132.37347412 44.47929382 C132.3511448 47.42422986 132.30095486 50.36793386 132.25 53.3125 C132.22993054 55.31313343 132.21168055 57.31378599 132.1953125 59.31445312 C132.15129125 64.21010764 132.08228747 69.10484518 132 74 C131.34 74 130.68 74 130 74 C129.91105469 74.75023437 129.82210937 75.50046875 129.73046875 76.2734375 C128.4809399 80.93745429 124.76280316 83.21401228 121 86 C115.77419355 89 115.77419355 89 113 89 C113 89.66 113 90.32 113 91 C112.27554688 91.32613281 111.55109375 91.65226562 110.8046875 91.98828125 C106.64562608 93.86817701 102.50617022 95.7424748 98.4375 97.8125 C96 99 96 99 94 99 C94 99.66 94 100.32 94 101 C89.71146306 102.88695626 85.47238653 104.58192622 81 106 C81 106.66 81 107.32 81 108 C80.01 108.4125 79.02 108.825 78 109.25 C74.47758348 110.74935856 71.08839243 112.45265073 67.69921875 114.23046875 C66 115 66 115 64 115 C64 115.66 64 116.32 64 117 C63.46632813 117.23074219 62.93265625 117.46148437 62.3828125 117.69921875 C57.20394907 119.9660915 52.16575914 122.41106026 47.1640625 125.046875 C45 126 45 126 42 126 C41.505 127.485 41.505 127.485 41 129 C30.85418839 132.3819372 18.57206025 130.82860189 9.15234375 126.19140625 C8.44207031 125.79824219 7.73179687 125.40507812 7 125 C6.01 124.505 6.01 124.505 5 124 C5 123.34 5 122.68 5 122 C2.03 121.505 2.03 121.505 -1 121 C-1 120.34 -1 119.68 -1 119 C-1.59167969 118.81824219 -2.18335937 118.63648438 -2.79296875 118.44921875 C-7.2422922 117.03385485 -11.0453825 115.52656118 -15 113 C-15.804375 112.71125 -16.60875 112.4225 -17.4375 112.125 C-22.89956679 109.72701946 -26.60523196 106.16396731 -29.17279053 100.77389526 C-31.12855716 94.21559054 -30.61423541 87.0445535 -30.6015625 80.25390625 C-30.60934796 78.51569717 -30.61801967 76.77749186 -30.62753296 75.03929138 C-30.64240989 71.40554439 -30.64190957 67.77218621 -30.63134766 64.13842773 C-30.61975771 59.50021407 -30.65363945 54.86359765 -30.700037 50.22564793 C-30.72961403 46.6385938 -30.73124163 43.05192003 -30.72501755 39.46476555 C-30.72603868 37.7556536 -30.73641435 36.04651888 -30.75664139 34.33752632 C-30.92333142 18.28714393 -30.92333142 18.28714393 -25.70199585 11.66368103 C-18.909339 5.02393843 -9.61482334 -0.1696264 0 0 Z " fill="#1C423D" transform="translate(128,105)"/>
<path d="M0 0 C0 0.66 0 1.32 0 2 C0.84046875 2.25007813 1.6809375 2.50015625 2.546875 2.7578125 C6.33611535 4.12091027 9.74581081 5.92106158 13.25 7.875 C18.323004 10.64740508 23.34809135 13.0908249 28.76953125 15.125 C32.30589893 16.5122966 35.62949983 18.25233325 39 20 C39 20.66 39 21.32 39 22 C39.825 22.268125 40.65 22.53625 41.5 22.8125 C45.36915561 24.12524922 49.17994294 25.55101284 53 27 C53 27.66 53 28.32 53 29 C53.763125 29.20625 54.52625 29.4125 55.3125 29.625 C69.10857406 34.7692988 69.10857406 34.7692988 72.6875 40.375 C74.76423504 46.11074438 74.95935319 49.85712315 72.4453125 55.47265625 C69.94838947 59.6434755 66.66415935 61.37919652 62.375 63.4375 C61.694375 63.78748047 61.01375 64.13746094 60.3125 64.49804688 C55.35755565 67 55.35755565 67 53 67 C53 67.66 53 68.32 53 69 C44.97488593 73.62724662 38.38774296 75.78209172 29.125 74.4375 C23.44263854 72.76552945 18.21151116 69.76210092 13 67 C13 66.34 13 65.68 13 65 C9.04 64.01 9.04 64.01 5 63 C5 62.34 5 61.68 5 61 C3.7934375 60.62875 3.7934375 60.62875 2.5625 60.25 C-1.74324143 58.73921353 -5.85364007 56.89811144 -10 55 C-10 54.34 -10 53.68 -10 53 C-13.3 52.01 -16.6 51.02 -20 50 C-20 49.34 -20 48.68 -20 48 C-20.78375 47.7525 -21.5675 47.505 -22.375 47.25 C-34.28571429 43.14285714 -34.28571429 43.14285714 -39 40 C-51.90808003 37.79750243 -61.23268373 43.18148605 -71.83984375 49.76171875 C-74 51 -74 51 -76 51 C-76 51.66 -76 52.32 -76 53 C-76.80050781 53.32871094 -76.80050781 53.32871094 -77.6171875 53.6640625 C-86.60229664 57.4881747 -95.48455193 61.59453856 -101 70 C-102.26812865 73.80438596 -102.13127336 77.3642604 -102.11352539 81.3269043 C-102.11367142 82.17590302 -102.11381744 83.02490173 -102.1139679 83.89962769 C-102.11327083 86.70785063 -102.10548806 89.51600738 -102.09765625 92.32421875 C-102.09579134 94.27049219 -102.09436778 96.21676609 -102.09336853 98.16304016 C-102.08954912 103.28733617 -102.07972373 108.41160386 -102.06866455 113.53588867 C-102.05843806 118.76415626 -102.05386825 123.99242842 -102.04882812 129.22070312 C-102.03810097 139.48048119 -102.02103143 149.74023824 -102 160 C-106.00726378 159.29440206 -108.53847603 158.14284817 -112 156 C-113.11375 155.608125 -114.2275 155.21625 -115.375 154.8125 C-120.66761436 152.62365074 -124.47083858 147.93566446 -127.07536316 142.93553162 C-128.3507376 138.88648034 -128.28693891 135.11994933 -128.2746582 130.89868164 C-128.27976913 129.99075363 -128.28488007 129.08282562 -128.29014587 128.14738464 C-128.30402517 125.15157445 -128.30308639 122.15599474 -128.30078125 119.16015625 C-128.30466897 117.07417211 -128.3090038 114.98818875 -128.31376648 112.90220642 C-128.32122503 108.53186475 -128.32093995 104.16160388 -128.31567383 99.79125977 C-128.3098785 94.19469856 -128.32681364 88.59846821 -128.3500185 83.00196171 C-128.36475983 78.69451468 -128.36562701 74.38714727 -128.36250877 70.07967949 C-128.36302174 68.01643658 -128.36825491 65.95318919 -128.37832069 63.88997078 C-128.39067588 61.00333354 -128.38389886 58.11734005 -128.37231445 55.23071289 C-128.38378006 53.95639908 -128.38378006 53.95639908 -128.39547729 52.65634155 C-128.34318848 46.75266084 -127.16953974 42.6597877 -123.34912109 37.97607422 C-116.05639366 31.26019331 -107.47397554 27.37257146 -98.625 23.125 C-97.00152981 22.33226437 -95.37889227 21.53782135 -93.75708008 20.74169922 C-91.35916732 19.56464004 -88.96094098 18.38833861 -86.56007385 17.21731567 C-80.54988504 14.28480328 -74.59494662 11.25998987 -68.6875 8.125 C-67.97996582 7.75133301 -67.27243164 7.37766602 -66.54345703 6.99267578 C-63.41979441 5.3313179 -60.34418797 3.6179554 -57.296875 1.8203125 C-53.44589862 -0.30593749 -50.26719732 -1.10164267 -46 -2 C-46 -2.66 -46 -3.32 -46 -4 C-30.2716355 -12.65639717 -14.96672285 -7.56096666 0 0 Z " fill="#102946" transform="translate(185,42)"/>
<path d="M0 0 C0.64965176 -0.00327096 1.29930352 -0.00654193 1.9686417 -0.00991201 C4.15745519 -0.01722468 6.3456049 -0.00300432 8.53437805 0.01104736 C10.10984343 0.01028763 11.68530863 0.00822242 13.2607708 0.00495529 C17.58495627 -0.00013689 21.90890839 0.01361501 26.23305631 0.03053093 C30.85383182 0.04545439 35.47460273 0.04332584 40.09539795 0.043396 C49.06464802 0.04642334 58.03378817 0.06596556 67.00299853 0.09188747 C74.23788056 0.11261757 81.47275434 0.12790053 88.70765686 0.13934326 C111.67503037 0.17614195 134.64226107 0.23326394 157.60953522 0.31010056 C170.91804991 0.3543528 184.22654931 0.3879646 197.53511047 0.41436768 C212.16942142 0.44379659 226.80358267 0.48847884 241.43776226 0.55781937 C242.93461796 0.56489994 244.4314737 0.57197371 245.92832947 0.57904053 C246.66172234 0.58251739 247.39511521 0.58599426 248.1507321 0.58957648 C253.30004206 0.61310976 258.44932666 0.6271507 263.59867859 0.63739014 C270.4455766 0.65126707 277.29204893 0.68593584 284.13879585 0.73554993 C286.61769043 0.75041263 289.0966359 0.75854919 291.57557487 0.75944519 C294.91569998 0.76177039 298.25474151 0.78838257 301.59468079 0.82159424 C302.56648631 0.81656261 303.53829184 0.81153099 304.53954601 0.80634689 C310.99701653 0.90771298 310.99701653 0.90771298 314.24186707 3.21020508 C316.1582914 6.1567226 316.23096772 7.92477815 315.64497375 11.36749268 C313.8784151 13.41157455 312.40143629 14.26234253 309.71619797 14.63559723 C307.17823488 14.7465275 304.65746405 14.74942627 302.11714172 14.72393799 C301.13375541 14.72594837 300.15036909 14.72795876 299.13718319 14.73003006 C295.80366784 14.73299614 292.47062146 14.71419213 289.13716125 14.69561768 C286.71371559 14.69304519 284.29026831 14.69173963 281.86682129 14.69158936 C275.86763195 14.68740453 269.86864272 14.66869319 263.86951905 14.64309788 C258.93154811 14.62226689 253.99358936 14.60699724 249.05558777 14.59564209 C248.34765904 14.59400189 247.63973031 14.59236168 246.91034919 14.59067178 C245.46396154 14.58733251 244.01757387 14.5840005 242.57118618 14.5806756 C229.97736834 14.5510231 217.38363994 14.50686108 204.78989208 14.45594549 C188.61578328 14.39070559 172.44175053 14.3475316 156.26753235 14.32061768 C137.09271221 14.28864652 117.9179945 14.24191364 98.74325562 14.17716599 C88.1557032 14.14168829 77.56820982 14.11215314 66.98060608 14.09759521 C57.86923747 14.08486819 48.75804096 14.05798064 39.64677101 14.01328087 C34.93951452 13.99058708 30.23246839 13.97453614 25.52515221 13.97554016 C21.18158297 13.97627648 16.8384922 13.95864017 12.49504685 13.92630911 C10.91327411 13.91779738 9.33144789 13.91609296 7.74966216 13.92169428 C5.60112445 13.92829822 3.4541368 13.91051644 1.30575562 13.88647461 C0.10796006 13.88278744 -1.08983549 13.87910027 -2.32392788 13.87530136 C-5.97244424 13.26405485 -7.1648776 12.30252261 -9.35502625 9.36749268 C-9.79831454 6.2644746 -10.0222941 4.34796206 -8.22487164 1.70686722 C-5.48172837 -0.2580526 -3.35316793 -0.00422939 0 0 Z " fill="#4F587C" transform="translate(328.3550262451172,195.63250732421875)"/>
<path d="M0 0 C5.94 0 11.88 0 18 0 C18 27.72 18 55.44 18 84 C12.06 84 6.12 84 0 84 C-0.495 80.04 -0.495 80.04 -1 76 C-1.70125 76.928125 -2.4025 77.85625 -3.125 78.8125 C-6.5841326 82.85452511 -9.52728238 84.67272855 -14.921875 85.38671875 C-23.117863 85.81960544 -28.70245248 84.33231594 -35 79 C-42.23837011 71.51744392 -43.5090642 62.54895935 -43.4375 52.5625 C-43.45748047 51.57701172 -43.47746094 50.59152344 -43.49804688 49.57617188 C-43.491536 39.75125687 -40.45614945 32.8285721 -33.80078125 25.66015625 C-28.74703915 21.00106646 -22.8680138 19.61870277 -16.15234375 19.71875 C-9.49212889 20.58905031 -5.6454244 24.3545756 -1 29 C-0.67 19.43 -0.34 9.86 0 0 Z " fill="#444D71" transform="translate(394,86)"/>
<path d="M0 0 C0.00423194 0.6002213 0.00846388 1.2004426 0.01282406 1.81885242 C0.11607632 16.41570583 0.22470595 31.01251235 0.33933926 45.60928059 C0.39464476 52.66813311 0.44812238 59.72699068 0.49731445 66.78588867 C0.54476388 73.59398912 0.59728386 80.40203523 0.65294075 87.21007347 C0.67337179 89.81166499 0.69208361 92.41327059 0.70907402 95.01488686 C0.73310134 98.6497063 0.76315839 102.28442836 0.79467773 105.91918945 C0.80331093 107.54406532 0.80331093 107.54406532 0.81211853 109.20176697 C0.82190735 110.19034698 0.83169617 111.178927 0.84178162 112.19746399 C0.84823417 113.05749684 0.85468672 113.9175297 0.8613348 114.80362415 C0.91721859 117.17803012 0.91721859 117.17803012 2 120 C-4.3291309 119.04104077 -9.58484759 116.27759225 -15 113 C-15.804375 112.71125 -16.60875 112.4225 -17.4375 112.125 C-22.89956679 109.72701946 -26.60523196 106.16396731 -29.17279053 100.77389526 C-31.12855716 94.21559054 -30.61423541 87.0445535 -30.6015625 80.25390625 C-30.60934796 78.51569717 -30.61801967 76.77749186 -30.62753296 75.03929138 C-30.64240989 71.40554439 -30.64190957 67.77218621 -30.63134766 64.13842773 C-30.61975771 59.50021407 -30.65363945 54.86359765 -30.700037 50.22564793 C-30.72961403 46.6385938 -30.73124163 43.05192003 -30.72501755 39.46476555 C-30.72603868 37.7556536 -30.73641435 36.04651888 -30.75664139 34.33752632 C-30.92333142 18.28714393 -30.92333142 18.28714393 -25.70199585 11.66368103 C-18.909339 5.02393843 -9.61482334 -0.1696264 0 0 Z " fill="#132A46" transform="translate(128,105)"/>
<path d="M0 0 C4.08452895 3.43781187 6.94594022 6.71520607 8 12 C8.08428482 13.58773306 8.11779948 15.17859182 8.11352539 16.76855469 C8.11344986 17.70922791 8.11337433 18.64990112 8.11329651 19.61907959 C8.10813522 20.62650208 8.10297394 21.63392456 8.09765625 22.671875 C8.0962413 23.70942932 8.09482635 24.74698364 8.09336853 25.815979 C8.08777447 29.12734876 8.07522303 32.43865071 8.0625 35.75 C8.05748423 37.99609277 8.05292146 40.24218661 8.04882812 42.48828125 C8.03780698 47.99221359 8.02054639 53.4960953 8 59 C2.39 59 -3.22 59 -9 59 C-9.495 56.03 -9.495 56.03 -10 53 C-10.9075 53.78375 -11.815 54.5675 -12.75 55.375 C-17.53927389 59.51119108 -20.97696951 60.29334422 -27.375 60.3125 C-28.66148437 60.32925781 -29.94796875 60.34601563 -31.2734375 60.36328125 C-36.08259643 59.89446387 -39.3352755 58.56700482 -42.86328125 55.24609375 C-43.34152344 54.64925781 -43.81976563 54.05242187 -44.3125 53.4375 C-44.80363281 52.83808594 -45.29476563 52.23867187 -45.80078125 51.62109375 C-49.34992385 46.82339285 -48.50049162 40.70699467 -48 35 C-45.60640155 29.94684771 -42.22495648 26.3675851 -37.01953125 24.16015625 C-30.92223171 22.10729661 -24.72620945 21.3268619 -18.3581543 20.64599609 C-14.55688783 20.28515836 -14.55688783 20.28515836 -11 19 C-10.60732224 14.93339308 -10.60732224 14.93339308 -12.17578125 11.3359375 C-14.63538836 9.53468347 -16.34491308 9.49976206 -19.375 9.4375 C-20.31085937 9.39496094 -21.24671875 9.35242188 -22.2109375 9.30859375 C-25.3288795 9.77362141 -25.3288795 9.77362141 -27.33203125 13.04296875 C-30 16 -30 16 -31.890625 16.39916992 C-34.07020313 16.36593846 -36.15276415 16.16836894 -38.3125 15.875 C-39.05306641 15.80023438 -39.79363281 15.72546875 -40.55664062 15.6484375 C-42.37426429 15.46081183 -44.18779461 15.23424512 -46 15 C-45.22708038 8.89480347 -43.39325835 5.2873967 -39 1 C-26.59307443 -7.04666419 -12.93378074 -7.09656128 0 0 Z " fill="#444D71" transform="translate(539,111)"/>
<path d="M0 0 C5.61 0 11.22 0 17 0 C17.495 15.345 17.495 15.345 18 31 C19.32 29.02 20.64 27.04 22 25 C27.34036358 20.16029551 33.59538589 20.59551763 40.51171875 20.66015625 C46.33497978 21.22748403 49.76755382 23.43661331 53.5546875 27.78515625 C56.8018387 32.10551845 58.1274975 35.42345194 58.11352539 40.74682617 C58.11344986 41.70759567 58.11337433 42.66836517 58.11329651 43.6582489 C58.10813522 44.69270645 58.10297394 45.727164 58.09765625 46.79296875 C58.0962413 47.85413406 58.09482635 48.91529938 58.09336853 50.00862122 C58.08776606 53.40160935 58.07521314 56.79453177 58.0625 60.1875 C58.05748532 62.48632717 58.05292236 64.78515538 58.04882812 67.08398438 C58.03779583 72.72268162 58.02052952 78.36132966 58 84 C52.39 84 46.78 84 41 84 C40.95101562 81.421875 40.90203125 78.84375 40.8515625 76.1875 C40.79743047 73.66872752 40.74017122 71.15004399 40.68261719 68.63134766 C40.64452085 66.89150724 40.60963553 65.15159324 40.578125 63.41162109 C40.53205099 60.89914795 40.4741305 58.387173 40.4140625 55.875 C40.40251129 55.10696045 40.39096008 54.3389209 40.37905884 53.54760742 C40.24151721 48.42405966 39.55968826 43.89786275 38 39 C34.64964035 36.36757456 32.02757009 35.76810137 27.875 36.0625 C23.8470157 37.03701233 22.45706985 37.75666779 20 41 C18.28311866 44.43376268 18.75490998 48.38114365 18.68359375 52.1640625 C18.66281265 53.07127045 18.64203156 53.97847839 18.62062073 54.91317749 C18.55512865 57.8170398 18.49624186 60.72099405 18.4375 63.625 C18.39431445 65.59115542 18.35070015 67.55730147 18.30664062 69.5234375 C18.19863907 74.34886539 18.09956323 79.17436101 18 84 C12.06 84 6.12 84 0 84 C0 56.28 0 28.56 0 0 Z " fill="#424B6F" transform="translate(820,86)"/>
<path d="M0 0 C7.09509906 4.8853684 10.08497885 10.69243656 12.76953125 18.74609375 C12.76953125 23.36609375 12.76953125 27.98609375 12.76953125 32.74609375 C-1.09046875 32.74609375 -14.95046875 32.74609375 -29.23046875 32.74609375 C-27.28308324 42.10831661 -27.28308324 42.10831661 -23.60546875 45.37109375 C-19.30719619 47.12224183 -15.80841585 47.45559109 -11.23046875 46.74609375 C-7.59579796 45.12209191 -6.45638179 44.08496331 -4.23046875 40.74609375 C-1.55078125 40.41796875 -1.55078125 40.41796875 1.64453125 40.49609375 C2.69382812 40.5115625 3.743125 40.52703125 4.82421875 40.54296875 C7.2945147 40.71333399 9.40828447 41.03886041 11.76953125 41.74609375 C11.28952614 46.78614739 10.0089545 49.84217342 6.76953125 53.74609375 C-3.11054774 61.24916629 -13.15501241 62.08048574 -25.23046875 60.74609375 C-33.990259 58.23142087 -39.62267341 52.46687829 -44.16015625 44.76171875 C-48.33872902 36.89258171 -48.46592925 27.26354803 -46.54296875 18.67578125 C-43.65214333 10.02739522 -39.27612242 3.23025564 -31.2265625 -1.2890625 C-21.18009702 -6.14518182 -9.67929376 -5.44142434 0 0 Z " fill="#444C71" transform="translate(729.23046875,110.25390625)"/>
<path d="M0 0 C8.14810349 5.17680259 11.78113258 12.13234281 14.078125 21.3203125 C14.078125 25.2803125 14.078125 29.2403125 14.078125 33.3203125 C0.218125 33.3203125 -13.641875 33.3203125 -27.921875 33.3203125 C-26.71657314 41.49294249 -26.71657314 41.49294249 -21.921875 46.3203125 C-17.37118815 48.27060686 -11.74632443 47.79625583 -7.046875 46.5703125 C-4.54707297 45.09984072 -4.08871478 43.90628174 -2.921875 41.3203125 C-1.005287 41.29319097 0.9114123 41.27386153 2.828125 41.2578125 C4.42914063 41.24041016 4.42914063 41.24041016 6.0625 41.22265625 C8.61181001 41.30521163 10.65746091 41.57413692 13.078125 42.3203125 C12.38634836 48.20041392 9.50324214 51.89519536 5.390625 56.0078125 C-3.00811149 62.42064086 -13.79343561 62.43624488 -23.921875 61.3203125 C-27.36147132 60.48632819 -29.99735814 59.29466987 -32.921875 57.3203125 C-33.55351562 56.9078125 -34.18515625 56.4953125 -34.8359375 56.0703125 C-41.16489693 51.33032586 -44.79862051 44.08097987 -45.921875 36.3203125 C-46.67906355 24.7638774 -46.21807457 15.46414009 -38.796875 6.0078125 C-28.87234645 -4.2711635 -12.86664709 -6.25826712 0 0 Z " fill="#434C70" transform="translate(468.921875,109.6796875)"/>
<path d="M0 0 C22.77 0 45.54 0 69 0 C69 4.95 69 9.9 69 15 C60.75 15 52.5 15 44 15 C44 37.77 44 60.54 44 84 C38.06 84 32.12 84 26 84 C26 61.23 26 38.46 26 15 C17.42 15 8.84 15 0 15 C0 10.05 0 5.1 0 0 Z " fill="#444D71" transform="translate(614,86)"/>
<path d="M0 0 C0.47920898 0.41354736 0.95841797 0.82709473 1.45214844 1.25317383 C2.0815332 1.79482178 2.71091797 2.33646973 3.359375 2.89453125 C3.98295898 3.43182861 4.60654297 3.96912598 5.24902344 4.52270508 C14.98311738 12.73533788 26.96401519 12.40774353 39 12 C36 14 36 14 34 14 C34 34.79 34 55.58 34 77 C37.96 76.01 37.96 76.01 42 75 C41.67 75.66 41.34 76.32 41 77 C30.85418839 80.3819372 18.57206025 78.82860189 9.15234375 74.19140625 C8.44207031 73.79824219 7.73179687 73.40507812 7 73 C6.34 72.67 5.68 72.34 5 72 C5 71.34 5 70.68 5 70 C3.02 69.67 1.04 69.34 -1 69 C-0.01 68.01 -0.01 68.01 1 67 C0.67 66.34 0.34 65.68 0 65 C-0.09160337 62.93707015 -0.1175118 60.87111115 -0.11352539 58.80615234 C-0.11344986 57.50495453 -0.11337433 56.20375671 -0.11329651 54.86312866 C-0.10818947 53.43739789 -0.10297347 52.0116675 -0.09765625 50.5859375 C-0.09579147 49.13148039 -0.09436785 47.67702266 -0.09336853 46.2225647 C-0.08954805 42.39207224 -0.07972176 38.56161763 -0.06866455 34.73114014 C-0.05844035 30.82336947 -0.05386874 26.91559269 -0.04882812 23.0078125 C-0.03809908 15.3385244 -0.02102828 7.6692675 0 0 Z " fill="#4B7F6D" transform="translate(128,157)"/>
<path d="M0 0 C5.22711074 4.29784661 7.5852225 8.46912606 8.375 15.1875 C8.4575 16.528125 8.54 17.86875 8.625 19.25 C3.345 19.25 -1.935 19.25 -7.375 19.25 C-8.365 17.27 -9.355 15.29 -10.375 13.25 C-12.94913747 10.91531718 -14.85405451 9.42595252 -18.3671875 9.01953125 C-21.45727381 9.17695074 -23.56831941 9.56452019 -25.9609375 11.59765625 C-31.49747809 18.11029215 -31.03975033 25.09440041 -30.61914062 33.23925781 C-30.09316713 37.57117549 -28.19456755 40.02763709 -25.375 43.25 C-21.63023428 45.12238286 -17.05572785 44.65882569 -13.0625 43.6875 C-10.55429536 41.76649306 -10.55429536 41.76649306 -8.375 35.25 C-2.765 35.25 2.845 35.25 8.625 35.25 C8.13411439 43.34961259 6.39813395 47.85786258 0.3125 53.4375 C-5.53796079 58.57967256 -11.65439099 59.8138602 -19.1875 59.75 C-20.3772644 59.74033203 -20.3772644 59.74033203 -21.59106445 59.73046875 C-30.28631043 59.45993812 -36.17694768 56.83926057 -42.25 50.5625 C-49.90319995 40.77436484 -50.68891356 30.28510323 -49.375 18.25 C-47.6413774 10.10505123 -42.9476606 3.40301812 -36.09765625 -1.3203125 C-24.71654286 -7.94824875 -10.9306288 -7.57047254 0 0 Z " fill="#444D71" transform="translate(800.375,111.75)"/>
<path d="M0 0 C5.94 0 11.88 0 18 0 C18 27.72 18 55.44 18 84 C12.06 84 6.12 84 0 84 C0 56.28 0 28.56 0 0 Z " fill="#444D71" transform="translate(560,86)"/>
<path d="M0 0 C5.94 0 11.88 0 18 0 C18 27.72 18 55.44 18 84 C12.06 84 6.12 84 0 84 C0 56.28 0 28.56 0 0 Z " fill="#434C70" transform="translate(321,86)"/>
<path d="M0 0 C1.23137695 -0.00945648 2.46275391 -0.01891296 3.73144531 -0.02865601 C5.07617514 -0.0232863 6.42090204 -0.01713334 7.765625 -0.01025391 C9.1442073 -0.01227487 10.52278855 -0.0151865 11.90136719 -0.01895142 C14.78981714 -0.02337375 17.67798867 -0.01694699 20.56640625 -0.00292969 C24.26892254 0.01416261 27.97078646 0.00432088 31.67327881 -0.01364708 C34.51974402 -0.02448762 37.36605455 -0.02103744 40.21252441 -0.0132637 C41.57767819 -0.01126242 42.94284602 -0.01371849 44.3079834 -0.02070236 C46.2157362 -0.02832031 48.12353824 -0.01465046 50.03125 0 C51.65981934 0.00358017 51.65981934 0.00358017 53.32128906 0.00723267 C56.015625 0.38818359 56.015625 0.38818359 57.87011719 1.72494507 C59.63913329 4.2934965 59.33140062 6.35673768 59.015625 9.38818359 C58.355625 10.37818359 57.695625 11.36818359 57.015625 12.38818359 C54.4929657 12.77586365 54.4929657 12.77586365 51.26831055 12.79223633 C49.46084602 12.81126259 49.46084602 12.81126259 47.61686707 12.83067322 C46.30857437 12.82773758 45.00028168 12.82480194 43.65234375 12.82177734 C42.29954261 12.82633757 40.9467438 12.83164266 39.59394836 12.83766174 C36.7550009 12.84660694 33.91633448 12.84415586 31.07739258 12.83422852 C27.44552522 12.82276416 23.81463381 12.8429024 20.18289471 12.87214565 C17.38694626 12.89053157 14.59123034 12.89021009 11.79523659 12.88450813 C9.80719997 12.88428076 7.81918519 12.90116997 5.83122253 12.9183197 C4.6167897 12.90893875 3.40235687 12.8995578 2.15112305 12.88989258 C0.55133858 12.88964333 0.55133858 12.88964333 -1.08076477 12.88938904 C-4.70562939 12.26368457 -6.39405968 10.95560589 -8.984375 8.38818359 C-9.484375 5.82568359 -9.484375 5.82568359 -8.984375 3.38818359 C-6.49175864 -0.11863577 -4.12944815 0.00907798 0 0 Z " fill="#5A9586" transform="translate(668.984375,197.61181640625)"/>
<path d="M0 0 C3.55875692 1.77183872 5.61584585 4.06461095 7.140625 7.77734375 C8.83016763 14.11312862 9.19288303 21.75954568 6.875 28 C4.5087815 31.7859496 2.79061577 33.59441692 -1 36 C-5.25156568 36.68328734 -7.37211107 36.30186968 -11.25 34.4375 C-15.80967726 30.39596788 -16.81667712 27.33227447 -17.28125 21.421875 C-17.46809618 13.48091233 -17.37885519 7.77636756 -11.875 1.625 C-7.85198361 -0.64887883 -4.51678926 -0.91449078 0 0 Z " fill="#FCFCFC" transform="translate(386,121)"/>
<path d="M0 0 C1.32 0 2.64 0 4 0 C4 12.21 4 24.42 4 37 C2.68 37 1.36 37 0 37 C-0.33 36.34 -0.66 35.68 -1 35 C-1.33 35.495 -1.66 35.99 -2 36.5 C-4.57534973 38.4315123 -6.7624475 38.54060977 -9.93359375 38.41796875 C-13.70259827 37.65561812 -15.38885153 35.79765908 -18 33 C-20.81722409 28.51805258 -20.52568828 23.12546069 -20 18 C-18.73775921 14.34614509 -17.70336187 12.58613489 -14.75 10.125 C-11.25175721 8.69390068 -8.74916263 8.59100044 -5 9 C-3.68 9.99 -2.36 10.98 -1 12 C-0.67 8.04 -0.34 4.08 0 0 Z " fill="#525A7C" transform="translate(982,131)"/>
<path d="M0 0 C0.57685009 9.80645161 0.57685009 9.80645161 -3 14 C-6.94921427 17.1813115 -10.00915191 17.44561144 -15 17 C-17.875 16.125 -17.875 16.125 -20 15 C-21.58368102 11.83263796 -21.42056706 9.4846985 -21 6 C-15.72626627 0.57977367 -7.27803942 0 0 0 Z " fill="#F8F8FA" transform="translate(529,142)"/>
<path d="M0 0 C3.1875 0.3125 3.1875 0.3125 5.5 2.125 C8.21835298 5.64879091 8.54631043 8.90565876 8.45703125 13.3046875 C7.99899284 16.71674172 6.84424207 18.18710634 4.1875 20.3125 C1.17602271 20.99720208 -0.6378989 20.76601444 -3.8125 20.3125 C-6.76230066 18.12393822 -7.14006647 15.41529409 -7.75 11.9375 C-8.07650946 8.20420312 -7.81022187 7.30824749 -5.9375 3.8125 C-2.97814417 0.33090491 -2.97814417 0.33090491 0 0 Z " fill="#F4F5F7" transform="translate(973.8125,143.6875)"/>
<path d="M0 0 C1.65 0 3.3 0 5 0 C5 10.89 5 21.78 5 33 C10.61 33 16.22 33 22 33 C22 34.32 22 35.64 22 37 C14.74 37 7.48 37 0 37 C0 24.79 0 12.58 0 0 Z " fill="#4B5477" transform="translate(918,131)"/>
<path d="M0 0 C3.8026029 2.0050088 5.61790841 3.42686262 8 7 C8 8.65 8 10.3 8 12 C-0.25 12 -8.5 12 -17 12 C-15.96032106 5.76192637 -15.66058052 4.70101765 -11.09765625 1.140625 C-7.41144533 -0.86379509 -4.04807536 -0.8758563 0 0 Z " fill="#F8F8F9" transform="translate(717,120)"/>
<path d="M0 0 C3.05531837 2.01373256 4.28693714 3.47996793 5.75 6.8125 C5.75 8.1325 5.75 9.4525 5.75 10.8125 C-2.5 10.8125 -10.75 10.8125 -19.25 10.8125 C-19.25 5.8125 -19.25 5.8125 -17 3.125 C-11.50104651 -1.49911998 -7.01671502 -2.56379972 0 0 Z " fill="#F9F9FA" transform="translate(460.25,121.1875)"/>
<path d="M0 0 C1.65 0 3.3 0 5 0 C5 1.98 5 3.96 5 6 C6.65 6 8.3 6 10 6 C10 7.32 10 8.64 10 10 C8.02 10 6.04 10 4 10 C4.33 15.94 4.66 21.88 5 28 C7.475 28.99 7.475 28.99 10 30 C10.8125 32.625 10.8125 32.625 11 35 C7.20494741 35.44128519 5.49003252 35.34188315 2.3125 33.125 C-0.98544806 28.66831344 -0.55991724 25.07358299 -0.3125 19.6875 C-0.28994141 18.75615234 -0.26738281 17.82480469 -0.24414062 16.86523438 C-0.18542078 14.5751604 -0.10336858 12.28842125 0 10 C-1.32 10 -2.64 10 -4 10 C-4 9.01 -4 8.02 -4 7 C-2.68 7 -1.36 7 0 7 C0 4.69 0 2.38 0 0 Z " fill="#4F587A" transform="translate(947,134)"/>
<path d="M0 0 C1.32 0 2.64 0 4 0 C4 12.21 4 24.42 4 37 C2.68 37 1.36 37 0 37 C-0.33 36.34 -0.66 35.68 -1 35 C-2.98 35.495 -2.98 35.495 -5 36 C-4.525625 35.4225 -4.05125 34.845 -3.5625 34.25 C-0.84143124 30.33166099 -0.90569009 26.8735237 -1 22.1875 C-1.06762725 14.74850255 -0.57417581 7.41301986 0 0 Z " fill="#454E72" transform="translate(982,131)"/>
<path d="M0 0 C0.58265625 0.22816406 1.1653125 0.45632812 1.765625 0.69140625 C1.21132812 1.2225 0.65703125 1.75359375 0.0859375 2.30078125 C-0.63851562 3.0071875 -1.36296875 3.71359375 -2.109375 4.44140625 C-3.18832031 5.48554687 -3.18832031 5.48554687 -4.2890625 6.55078125 C-6.09917179 8.54262842 -7.18285586 10.23417205 -8.234375 12.69140625 C-8.564375 12.69140625 -8.894375 12.69140625 -9.234375 12.69140625 C-9.671875 10.12890625 -9.671875 10.12890625 -9.234375 6.69140625 C-4.0714334 -0.56231335 -4.0714334 -0.56231335 0 0 Z " fill="#22314B" transform="translate(68.234375,76.30859375)"/>
<path d="M0 0 C1.65 0 3.3 0 5 0 C5.38218767 1.65614657 5.71395102 3.32457024 6 5 C5 6 5 6 2.4375 6.0625 C1.2309375 6.0315625 1.2309375 6.0315625 0 6 C-1.125 2.25 -1.125 2.25 0 0 Z " fill="#596181" transform="translate(995,162)"/>
<path d="M0 0 C-2.06756277 2.7972908 -3.14440371 3.02692273 -6.6875 3.6875 C-7.780625 3.790625 -8.87375 3.89375 -10 4 C-7.39928297 0.98864344 -3.94054294 -1.97027147 0 0 Z " fill="#334258" transform="translate(110,93)"/>
<path d="M0 0 C1.65 0 3.3 0 5 0 C0.25 4.875 0.25 4.875 -2 6 C-2 4.68 -2 3.36 -2 2 C-1.34 2 -0.68 2 0 2 C0 1.34 0 0.68 0 0 Z " fill="#293951" transform="translate(89,101)"/>
</svg>
